HIERARCHY
ROOT Hips
{
	OFFSET 0.000000 0.000000 0.000000
	CHANNELS 6 Xposition Yposition Zposition Zrotation Yrotation Xrotation 
	JOINT LHipJoint
	{
		OFFSET 0.000000 0.000000 0.000000
		CHANNELS 3 Zrotation Yrotation Xrotation
		JOINT LeftUpLeg
		{
			OFFSET 1.363060 -1.794630 0.839290
			CHANNELS 3 Zrotation Yrotation Xrotation
			JOINT LeftLeg
			{
				OFFSET 2.448110 -6.726130 0.000000
				CHANNELS 3 Zrotation Yrotation Xrotation
				JOINT LeftFoot
				{
					OFFSET 2.562200 -7.039590 0.000000
					CHANNELS 3 Zrotation Yrotation Xrotation
					JOINT LeftToeBase
					{
						OFFSET 0.157640 -0.433110 2.322550
						CHANNELS 3 Zrotation Yrotation Xrotation
						End Site
						{
							OFFSET 0.000000 0.000000 0.000000
						}
					}
				}
			}
		}
	}
	JOINT RHipJoint
	{
		OFFSET 0.000000 0.000000 0.000000
		CHANNELS 3 Zrotation Yrotation Xrotation
		JOINT RightUpLeg
		{
			OFFSET -1.305520 -1.794630 0.839290
			CHANNELS 3 Zrotation Yrotation Xrotation
			JOINT RightLeg
			{
				OFFSET -2.542530 -6.985550 0.000000
				CHANNELS 3 Zrotation Yrotation Xrotation
				JOINT RightFoot
				{
					OFFSET -2.568260 -7.056230 0.000000
					CHANNELS 3 Zrotation Yrotation Xrotation
					JOINT RightToeBase
					{
						OFFSET -0.164730 -0.452590 2.363150
						CHANNELS 3 Zrotation Yrotation Xrotation
						End Site
						{
							OFFSET 0.000000 0.000000 0.000000
						}
					}
				}
			}
		}
	}
}
MOTION
Frames: 19
Frame Time: 0.008333
-10.856415 16.531214 -0.321023 -18.128943 74.699435 -1.447897 -9.119018 -0.499918 0.148891 -13.272705 6.904865 -51.268629 -2.044863 1.288263 25.513617 2.291434 12.151909 0.667846 2.514700 -0.000000 -18.923600 10.458504 -2.528033 -2.235529 1.420826 -6.252682 -1.499974 1.498336 -1.998325 27.859171 1.058640 13.515478 7.390117 2.931600 -0.000000 -93.979000
-10.665343 16.534809 -0.337607 -16.849569 74.811732 -0.320584 -9.131578 -0.438362 0.098481 -13.552597 6.532291 -51.084772 -1.981099 1.413183 27.133190 2.351677 12.384653 -0.092037 2.368300 -0.000000 -17.351200 10.635787 -2.511205 -2.325304 0.542834 -6.866265 -2.775658 1.148501 -2.243044 30.815651 0.927778 13.748549 9.934064 3.613600 -0.000000 -95.178600
-10.478209 16.540895 -0.356866 -15.623687 74.979766 0.764940 -9.142016 -0.387866 0.056902 -13.841720 6.089844 -50.755016 -1.925425 1.499994 28.518981 2.425471 12.660997 -1.059773 2.178300 0.000000 -16.046300 10.801133 -2.465398 -2.418153 -0.247539 -7.449059 -4.135318 0.789234 -2.463292 33.828615 0.736483 13.530488 12.642679 4.240299 -0.000000 -95.510500
-10.294860 16.549358 -0.378634 -14.437001 75.198297 1.821185 -9.150223 -0.347905 0.023424 -14.139921 5.585665 -50.274359 -1.877696 1.550056 29.660567 2.513551 12.988008 -2.181274 1.951600 -0.000000 -15.006000 10.951520 -2.386965 -2.512397 -0.945041 -7.987670 -5.556607 0.439220 -2.656212 36.863815 0.491446 12.838959 15.408690 4.709900 -0.000000 -94.775100
-10.115060 16.560195 -0.403207 -13.366738 75.455686 2.769995 -9.156860 -0.317825 -0.001598 -14.425049 5.042465 -49.655643 -1.836198 1.567628 30.566713 2.613489 13.354806 -3.397461 1.693600 -0.000000 -14.205300 11.082684 -2.277575 -2.604285 -1.519159 -8.459455 -7.012331 0.116944 -2.821316 39.881485 0.204180 11.668818 18.087228 4.913600 0.000000 -92.902600
-9.938483 16.573580 -0.430252 -12.402413 75.745210 3.618386 -9.162104 -0.294755 -0.020186 -14.698618 4.477601 -48.904894 -1.800824 1.556716 31.239775 2.721790 13.751461 -4.641706 1.414400 0.000000 -13.614300 11.194003 -2.141054 -2.693708 -1.973927 -8.861644 -8.485392 -0.164044 -2.963672 42.851663 -0.109180 10.068666 20.514414 4.779100 -0.000000 -90.045600
-9.764824 16.589749 -0.459731 -11.598594 76.055505 4.310000 -9.167143 -0.275544 -0.033074 -14.946555 3.916699 -48.043100 -1.770600 1.523442 31.696592 2.832393 14.155215 -5.852992 1.124200 0.000000 -13.191901 11.284512 -1.985909 -2.779193 -2.294599 -9.185234 -9.961195 -0.398710 -3.090166 45.742456 -0.429926 8.114296 22.531137 4.284900 0.000000 -86.550800
-9.593752 16.609052 -0.491330 -10.971757 76.379138 4.827850 -9.173142 -0.256515 -0.042003 -15.165600 3.381399 -47.090352 -1.745558 1.473607 31.952737 2.938407 14.542002 -6.977667 0.836199 -0.000000 -12.894900 11.355238 -1.821821 -2.860057 -2.480890 -9.426587 -11.432003 -0.590625 -3.208995 48.526964 -0.739404 5.925809 24.012915 3.481400 0.000000 -82.842400
-9.424996 16.631853 -0.524664 -10.543718 76.709740 5.150738 -9.181463 -0.234545 -0.049018 -15.351653 2.892262 -46.068932 -1.725942 1.412895 32.027232 3.032553 14.885476 -7.975363 0.563500 -0.000000 -12.681101 11.407863 -1.657820 -2.935069 -2.532299 -9.581007 -12.893984 -0.749278 -3.326300 51.179169 -1.021767 3.649610 24.893122 2.476100 0.000000 -79.346700
-9.258351 16.658328 -0.559394 -10.345906 77.044437 5.249288 -9.193645 -0.207257 -0.055320 -15.499084 2.465522 -45.002969 -1.712026 1.346386 31.942772 3.108046 15.159071 -8.821996 0.317200 -0.000000 -12.513900 11.444260 -1.501412 -3.002353 -2.447076 -9.645429 -14.346946 -0.885742 -3.445103 53.678817 -1.264256 1.443601 25.154767 1.406700 0.000001 -76.281900
-9.093623 16.688574 -0.595111 -10.391789 77.384915 5.112275 -9.210495 -0.173275 -0.062385 -15.606771 2.110098 -43.910788 -1.704456 1.277612 31.718971 3.159714 15.341244 -9.509144 0.105600 0.000000 -12.365599 11.466795 -1.357188 -3.060457 -2.231180 -9.621172 -15.790306 -1.008890 -3.565635 56.006201 -1.457754 -0.544184 24.829357 0.409100 0.000001 -73.740000
-8.930667 16.722507 -0.631395 -10.687959 77.735318 4.734758 -9.232007 -0.132214 -0.071612 -15.675815 1.827869 -42.804378 -1.703799 1.208662 31.372792 3.184591 15.417758 -10.042033 -0.067400 -0.000000 -12.217800 11.477659 -1.226833 -3.107619 -1.894665 -9.510743 -17.219196 -1.123363 -3.685087 58.133746 -1.597630 -2.201790 23.999100 -0.413200 0.000000 -71.824000
-8.769345 16.759787 -0.667856 -11.235149 78.102387 4.116758 -9.257266 -0.084309 -0.083526 -15.709026 1.612697 -41.688973 -1.710356 1.140249 30.918101 3.182313 15.383602 -10.438148 -0.202700 0.000000 -12.060200 11.479055 -1.110279 -3.142969 -1.453184 -9.321718 -18.626494 -1.229545 -3.800132 60.038889 -1.681038 -3.452422 22.754345 -0.998500 0.000000 -70.451100
-8.609582 16.799894 -0.704233 -12.029120 78.493898 3.262267 -9.284493 -0.030551 -0.098138 -15.710708 1.451591 -40.563506 -1.723989 1.071935 30.365250 3.154984 15.243552 -10.722582 -0.304800 0.000000 -11.888000 11.472903 -1.005693 -3.166089 -0.927132 -9.063902 -20.001478 -1.324242 -3.906900 61.695795 -1.708718 -4.266037 21.206969 -1.332901 0.000000 -69.540401
-8.451206 16.842139 -0.740260 -13.063476 78.917864 2.176066 -9.311296 0.027624 -0.114797 -15.686540 1.325861 -39.420317 -1.744002 1.002320 29.719649 3.106805 15.012082 -10.922987 -0.380599 -0.000000 -11.701200 11.460815 -0.910148 -3.177414 -0.339982 -8.749927 -21.331183 -1.402253 -4.001926 63.079678 -1.685011 -4.656829 19.477705 -1.442600 0.000000 -69.050900
-8.294029 16.885704 -0.775882 -14.337808 79.380728 0.856752 -9.335064 0.088574 -0.131951 -15.642632 1.213218 -38.248734 -1.769067 0.929578 28.984941 3.043369 14.710671 -11.066800 -0.437700 -0.000000 -11.501100 11.444076 -0.820239 -3.178142 0.283766 -8.395586 -22.604265 -1.458203 -4.082693 64.171425 -1.617782 -4.676114 17.684822 -1.380000 -0.000000 -68.876501
-8.137815 16.929755 -0.811042 -15.862296 79.887834 -0.708096 -9.353228 0.150497 -0.147096 -15.584365 1.089952 -37.037745 -1.797297 0.851734 28.163221 2.970976 14.365446 -11.178019 -0.483000 0.000000 -11.291000 11.423815 -0.732770 -3.170671 0.921423 -8.020674 -23.814114 -1.488254 -4.148383 64.965199 -1.517467 -4.401477 15.924442 -1.206700 0.000000 -68.843900
-7.982325 16.973386 -0.845877 -17.674188 80.441695 -2.557338 -9.363610 0.211368 -0.157540 -15.515052 0.934878 -35.779368 -1.826331 0.767243 27.258752 2.895490 14.002242 -11.274549 -0.521900 0.000000 -11.074200 11.400614 -0.644848 -3.157016 1.556793 -7.643062 -24.957604 -1.490792 -4.198361 65.457640 -1.398621 -3.939062 14.293667 -0.986400 0.000000 -68.955800
-7.827238 17.015792 -0.880542 -19.843854 81.042813 -4.762192 -9.364435 0.269160 -0.160267 -15.436553 0.729748 -34.469282 -1.853642 0.674970 26.277134 2.821870 13.644159 -11.367734 -0.557700 0.000001 -10.854300 11.375166 -0.555176 -3.139820 2.178908 -7.281801 -26.038789 -1.466715 -4.234083 65.662641 -1.274791 -3.393039 12.843370 -0.766700 0.000000 -69.047000
